<svg width="200" height="250" viewBox="0 0 200 250" fill="none" xmlns="http://www.w3.org/2000/svg">
<path d="M89.2637 25C69.4837 25 59.4201 27.1095 50.1583 32.0628C42.2928 36.2694 36.2694 42.2928 32.0628 50.1583C27.1095 59.4201 25 69.4838 25 89.2639V160.736C25 180.516 27.1095 190.58 32.0628 199.841C36.2694 207.708 42.2928 213.731 50.1583 217.937C59.4201 222.89 69.4837 225 89.2637 225H110.736C130.516 225 140.58 222.89 149.841 217.937C157.707 213.731 163.731 207.708 167.937 199.841C172.89 190.58 175 180.516 175 160.736V89.2639C175 69.4838 172.89 59.4201 167.937 50.1583C163.731 42.2928 157.707 36.2694 149.841 32.0628C140.58 27.1095 130.516 25 110.736 25H89.2637ZM89.2637 0H110.736C135.91 0 149.41 3.481 161.631 10.0175C173.854 16.554 183.446 26.1461 189.983 38.3682C196.519 50.5905 200 64.0901 200 89.2639V160.736C200 185.91 196.519 199.41 189.983 211.631C183.446 223.854 173.854 233.446 161.631 239.983C149.41 246.519 135.91 250 110.736 250H89.2637C64.0901 250 50.5905 246.519 38.3682 239.983C26.1461 233.446 16.554 223.854 10.0175 211.631C3.481 199.41 0 185.91 0 160.736V89.2639C0 64.0901 3.481 50.5905 10.0175 38.3682C16.554 26.1461 26.1461 16.554 38.3682 10.0175C50.5905 3.481 64.0901 0 89.2637 0ZM87.5 50H112.5V112.5H87.5V50Z" fill="#603DCC"/>
</svg>
